<svg id="visual" viewBox="0 0 900 600" width="900" height="600" xmlns="http://www.w3.org/2000/svg" xmlns:xlink="http://www.w3.org/1999/xlink" version="1.1"><rect x="0" y="0" width="900" height="600" fill="#001220"></rect><path d="M442 0L417.7 14.3C393.3 28.7 344.7 57.3 321.7 85.8C298.7 114.3 301.3 142.7 318.7 171.2C336 199.7 368 228.3 392.3 257C416.7 285.7 433.3 314.3 427 343C420.7 371.7 391.3 400.3 380.3 428.8C369.3 457.3 376.7 485.7 377.3 514.2C378 542.7 372 571.3 369 585.7L366 600L0 600L0 585.7C0 571.3 0 542.7 0 514.2C0 485.7 0 457.3 0 428.8C0 400.3 0 371.7 0 343C0 314.3 0 285.7 0 257C0 228.3 0 199.7 0 171.2C0 142.7 0 114.3 0 85.8C0 57.3 0 28.7 0 14.3L0 0Z" fill="#fa7268"></path><path d="M235 0L239.7 14.3C244.3 28.7 253.7 57.3 274.2 85.8C294.7 114.3 326.3 142.7 329.3 171.2C332.3 199.7 306.7 228.3 302 257C297.3 285.7 313.7 314.3 307.2 343C300.7 371.7 271.3 400.3 275.5 428.8C279.7 457.3 317.3 485.7 328.5 514.2C339.7 542.7 324.3 571.3 316.7 585.7L309 600L0 600L0 585.7C0 571.3 0 542.7 0 514.2C0 485.7 0 457.3 0 428.8C0 400.3 0 371.7 0 343C0 314.3 0 285.7 0 257C0 228.3 0 199.7 0 171.2C0 142.7 0 114.3 0 85.8C0 57.3 0 28.7 0 14.3L0 0Z" fill="#ef5f67"></path><path d="M250 0L236.8 14.3C223.7 28.7 197.3 57.3 193.2 85.8C189 114.3 207 142.7 210.8 171.2C214.7 199.7 204.3 228.3 214 257C223.7 285.7 253.3 314.3 249.2 343C245 371.7 207 400.3 198.3 428.8C189.7 457.3 210.3 485.7 227.5 514.2C244.7 542.7 258.3 571.3 265.2 585.7L272 600L0 600L0 585.7C0 571.3 0 542.7 0 514.2C0 485.7 0 457.3 0 428.8C0 400.3 0 371.7 0 343C0 314.3 0 285.7 0 257C0 228.3 0 199.7 0 171.2C0 142.7 0 114.3 0 85.8C0 57.3 0 28.7 0 14.3L0 0Z" fill="#e34c67"></path><path d="M210 0L201.2 14.3C192.3 28.7 174.7 57.3 175.5 85.8C176.3 114.3 195.7 142.7 200.2 171.2C204.7 199.7 194.3 228.3 189.8 257C185.3 285.7 186.7 314.3 189.2 343C191.7 371.7 195.3 400.3 187.5 428.8C179.7 457.3 160.3 485.7 162.7 514.2C165 542.7 189 571.3 201 585.7L213 600L0 600L0 585.7C0 571.3 0 542.7 0 514.2C0 485.7 0 457.3 0 428.8C0 400.3 0 371.7 0 343C0 314.3 0 285.7 0 257C0 228.3 0 199.7 0 171.2C0 142.7 0 114.3 0 85.8C0 57.3 0 28.7 0 14.3L0 0Z" fill="#d53867"></path><path d="M116 0L108.2 14.3C100.3 28.7 84.7 57.3 86.8 85.8C89 114.3 109 142.7 114 171.2C119 199.7 109 228.3 102 257C95 285.7 91 314.3 83.7 343C76.3 371.7 65.7 400.3 71.2 428.8C76.7 457.3 98.3 485.7 107.5 514.2C116.7 542.7 113.3 571.3 111.7 585.7L110 600L0 600L0 585.7C0 571.3 0 542.7 0 514.2C0 485.7 0 457.3 0 428.8C0 400.3 0 371.7 0 343C0 314.3 0 285.7 0 257C0 228.3 0 199.7 0 171.2C0 142.7 0 114.3 0 85.8C0 57.3 0 28.7 0 14.3L0 0Z" fill="#c62368"></path></svg>